<svg width="797" height="504" viewBox="0 0 797 504" fill="none" xmlns="http://www.w3.org/2000/svg">
<path d="M129.7 259.4C201.331 259.4 259.4 201.331 259.4 129.7C259.4 58.0686 201.331 2.44141e-05 129.7 2.44141e-05C58.0687 2.44141e-05 -4.88281e-05 58.0686 -4.88281e-05 129.7C-4.88281e-05 201.331 58.0687 259.4 129.7 259.4Z" transform="translate(-10.6396 50.9201) rotate(-7.5)" fill="white" stroke="#31323D" stroke-width="10" stroke-miterlimit="10" stroke-linecap="round"/>
<path d="M72.4 144.8C112.385 144.8 144.8 112.385 144.8 72.4C144.8 32.4146 112.385 -4.88281e-05 72.4 -4.88281e-05C32.4146 -4.88281e-05 -4.88281e-05 32.4146 -4.88281e-05 72.4C-4.88281e-05 112.385 32.4146 144.8 72.4 144.8Z" transform="translate(91.3848 137.124) scale(1.00841) rotate(-7.40691)" fill="#EF4B62"/>
<path d="M53.4 106.8C82.892 106.8 106.8 82.892 106.8 53.4C106.8 23.908 82.892 -4.88281e-05 53.4 -4.88281e-05C23.908 -4.88281e-05 -4.88281e-05 23.908 -4.88281e-05 53.4C-4.88281e-05 82.892 23.908 106.8 53.4 106.8Z" transform="translate(106.649 144.63) rotate(-7.5)" fill="#31323D"/>
<path d="M29 58C45.0163 58 58 45.0163 58 29C58 12.9838 45.0163 2.44141e-05 29 2.44141e-05C12.9838 2.44141e-05 4.88281e-05 12.9838 4.88281e-05 29C4.88281e-05 45.0163 12.9838 58 29 58Z" transform="translate(149.386 119.252) rotate(-8.11)" fill="white"/>
<path d="M129.7 259.4C201.331 259.4 259.4 201.331 259.4 129.7C259.4 58.0687 201.331 -2.44141e-05 129.7 -2.44141e-05C58.0687 -2.44141e-05 4.88281e-05 58.0687 4.88281e-05 129.7C4.88281e-05 201.331 58.0687 259.4 129.7 259.4Z" transform="translate(516.131 246.414) rotate(-82.5)" fill="white" stroke="#31323D" stroke-width="10" stroke-miterlimit="10" stroke-linecap="round"/>
<path d="M72.4 144.8C112.385 144.8 144.8 112.385 144.8 72.3999C144.8 32.4145 112.385 4.88281e-05 72.4 4.88281e-05C32.4146 4.88281e-05 2.44141e-05 32.4145 2.44141e-05 72.3999C2.44141e-05 112.385 32.4146 144.8 72.4 144.8Z" transform="translate(558.027 108.048) rotate(-7.5)" fill="#EF4B62"/>
<path d="M53.4 106.8C82.8921 106.8 106.8 82.8921 106.8 53.4C106.8 23.908 82.8921 2.44141e-05 53.4 2.44141e-05C23.908 2.44141e-05 2.44141e-05 23.908 2.44141e-05 53.4C2.44141e-05 82.8921 23.908 106.8 53.4 106.8Z" transform="translate(582.361 125.505) rotate(-7.5)" fill="#31323D"/>
<path d="M29 58C45.0163 58 58 45.0163 58 29C58 12.9837 45.0163 0 29 0C12.9837 0 0 12.9837 0 29C0 45.0163 12.9837 58 29 58Z" transform="translate(628.004 100.727) rotate(-7.5)" fill="white"/>
<path opacity="0.2" d="M-2.44141e-05 2.44141e-05C-2.44141e-05 2.44141e-05 15.9 86.9 76.6 81.1C135.3 75.4 146.5 2.44141e-05 146.5 2.44141e-05C146.5 2.44141e-05 118.6 38.5999 80.6 41.2999C42.6 43.9999 -2.44141e-05 2.44141e-05 -2.44141e-05 2.44141e-05Z" transform="translate(345.6 422.6)" fill="#595959"/>
<path d="M0.988022 38.7291C-1.11198 33.2291 0.188046 26.9291 4.38805 22.7291C13.188 13.8291 32.288 0.729027 67.888 0.0290266C103.488 -0.670973 120.588 11.429 128.688 20.129C132.688 24.529 133.788 30.8291 131.388 36.2291C128.288 43.5291 121.188 48.4291 113.288 48.8291C103.288 49.3291 89.3881 52.529 80.7881 65.129C80.2881 65.929 79.688 66.6291 78.988 67.3291L78.6881 67.629C71.5881 74.329 60.3881 73.9291 53.6881 66.8291L53.388 66.529C53.388 66.529 45.988 54.1291 19.088 52.4291C11.088 51.8291 4.0881 46.629 1.1881 39.129V38.8291L0.988022 38.7291V38.7291Z" transform="translate(335.611 160.771)" fill="#31323D"/>
<path d="M15.0831 6.68304L15.2831 8.38311C15.4831 9.48311 15.783 11.1831 16.183 13.3831C16.983 17.6831 18.2831 23.883 20.0831 31.183C22.1831 39.583 24.783 47.7831 27.683 55.8831C30.983 65.0831 35.0831 74.083 39.8831 82.683C44.5831 91.283 50.383 99.183 57.183 106.183C60.283 109.383 63.6831 112.183 67.3831 114.783C70.6831 117.083 74.1831 118.983 77.8831 120.583C80.9831 121.883 84.2831 122.983 87.5831 123.683C90.1831 124.283 92.7831 124.683 95.3831 124.883L100.483 125.083H102.383C103.183 125.083 103.883 125.683 103.983 126.483C103.983 127.283 103.383 127.983 102.483 128.083L100.583 128.283L95.183 128.483C88.683 128.383 82.283 127.283 76.183 125.183C72.083 123.783 68.0831 121.883 64.3831 119.683C60.1831 117.183 56.2831 114.383 52.5831 111.183C44.7831 104.183 37.883 96.1831 32.183 87.3831C26.483 78.6831 21.4831 69.5831 17.2831 60.0831C13.5831 51.8831 10.2831 43.4831 7.38311 34.8831C4.88311 27.3831 3.08311 20.9831 1.88311 16.4831C1.28311 14.1831 0.883061 12.483 0.583061 11.183L0.183037 9.18304C-0.716963 5.08304 1.78311 1.08304 5.88311 0.183037C9.98311 -0.716963 13.9831 1.78311 14.8831 5.88311V6.58306L15.0831 6.68304V6.68304Z" transform="translate(395.517 225.217)" fill="#31323D"/>
<path d="M223.8 138.879H225.7L228 138.679H229.5L231.1 138.479L234.8 137.979L239.1 137.079L243.9 135.679L246.4 134.679C247.3 134.379 248.2 133.979 249 133.579L251.6 132.279C252.5 131.879 253.3 131.279 254.2 130.779L255.5 129.979L256.8 129.079L259.4 127.179C262.9 124.279 266 120.879 268.7 117.179C269.4 116.179 270.1 115.279 270.8 114.179L272.7 111.079C273.9 108.879 275.1 106.779 276.1 104.379C278.3 99.6787 280.1 94.8787 281.6 89.9787C283.1 84.9787 284.5 79.9787 285.6 74.8787C286.7 69.7787 287.7 64.8787 288.6 59.9787C289.5 55.0787 290.2 50.3787 290.9 45.8787C291.6 41.3787 292.2 37.0786 292.7 33.0786L296.4 6.47866C297 2.37866 300.8 -0.521368 304.9 0.0786317C309 0.678632 311.9 4.47863 311.3 8.57863V9.07863L305.8 35.2787C305 39.1787 304.1 43.4787 303.1 47.9787C302.1 52.4787 301 57.2786 299.8 62.1786C298.6 67.0786 297.2 72.1787 295.7 77.3787C294.2 82.5787 292.4 87.7787 290.4 92.8787C288.4 98.0787 286.1 103.079 283.4 107.879C282.1 110.279 280.6 112.579 279.2 114.879L276.8 118.179C276 119.279 275.1 120.279 274.3 121.279C271 125.179 267.3 128.679 263.2 131.679L260.2 133.679L258.7 134.579L257.2 135.379C256.2 135.879 255.2 136.479 254.2 136.879L251.2 138.079C250.3 138.479 249.3 138.779 248.3 139.079L245.5 139.979L240.2 141.179L235.5 141.879L231.5 142.179H224.1C223.2 142.279 222.4 141.579 222.3 140.679C222.2 139.779 222.9 138.979 223.8 138.879V138.879ZM244.7 73.9787L241.3 73.0786L237.2 71.9787L231.8 70.6786L228.6 69.9787L225.1 69.2787L221.3 68.5786L217.1 67.9787L212.7 67.2787L208 66.7787C204.8 66.3787 201.3 66.2787 197.8 65.9787L192.3 65.7787H180.8L174.7 66.1786C166.1 66.7786 157.6 67.9786 149.1 69.6786C130.7 73.4786 112.9 79.8786 96.2 88.6786L89.9 92.1786L83.7 95.8787L77.7 99.7787L71.9 103.879C64.4 109.379 57.3 115.379 50.6 121.879C44.4 127.979 38.5 134.479 33.2 141.379C30.6 144.579 28.3 147.979 26 151.179L22.8 155.979L21.3 158.379L19.9 160.679C16.1 166.879 13 172.779 10.5 178.179C7.99995 183.579 5.99998 188.279 4.39998 192.279C2.79998 196.279 1.80005 199.379 1.10005 201.579L-4.88281e-05 204.879L0.999951 201.479C1.59995 199.279 2.59995 196.079 3.99995 192.079C5.39995 188.079 7.20005 183.179 9.60005 177.779C12.3 171.679 15.2 165.679 18.5 159.879L19.9 157.479L21.4 155.079L24.5 150.079C26.7 146.779 28.9 143.379 31.5 139.979C36.7 132.779 42.4 126.079 48.5 119.679C55.1 112.879 62.1001 106.479 69.6001 100.679L75.4 96.2787L81.4 92.0786L87.6001 88.0786L94 84.2787C110.8 74.6787 129 67.4787 147.8 62.9787C156.5 60.9787 165.3 59.3787 174.2 58.4787L180.5 57.8787L186.6 57.5786L192.5 57.3787H198.2C201.9 57.4787 205.5 57.5787 208.9 57.8787L213.9 58.2787L218.6 58.7787L223 59.2787L227.1 59.8787L230.8 60.4787L234.2 61.1786L240 62.3787L244.1 63.3787L247.5 64.1786C250.2 64.7786 251.9 67.3786 251.4 70.0786C250.8 72.7786 248.2 74.4787 245.5 73.9787C245.4 73.9787 245.2 73.8787 245.1 73.8787H244.9L244.7 73.9787V73.9787ZM45.4 49.0786L52 46.7787L59.6 44.1786L69.6001 41.2787L75.3 39.6786L81.5 38.1786L88 36.5786L94.9 35.1786L102 33.7787L109.4 32.6786L113.1 32.0786L116.9 31.5786L124.5 30.6786L128.3 30.2787L132.1 29.9787L139.7 29.3787L147.2 28.9787L150.9 28.7787H168.3L174.7 28.9787L180.7 29.2787L191.2 30.0786L199.3 30.8787L204.5 31.5786L206.4 31.8787C209.1 32.2787 211 34.8786 210.6 37.5786C210.2 40.2786 207.6 42.1787 204.9 41.7787H204.5L202.8 41.3787L197.9 40.3787L190.2 39.0786L180.1 37.6786L174.3 37.0786L168.1 36.4787L161.5 35.9787L154.6 35.6786L151.1 35.4787H129L125.2 35.6786L117.7 36.0786L114 36.3787L110.3 36.6786L103 37.3787L95.9 38.2787L89 39.1786L82.4 40.3787L76.2 41.4787L70.4 42.6786L60.3 44.9787L52.6 47.0786L45.4 49.0786V49.0786Z" transform="translate(99.6992 213.721)" fill="#31323D"/>
<path d="M125.347 71.6001H124.747L122.947 71.2C121.347 70.9 119.047 70.4001 116.047 70.1001C107.747 69.0001 99.3468 68.7 90.9468 69.4C85.3468 69.9 79.8469 70.8001 74.3469 72.1001C68.2469 73.6001 62.3468 75.7 56.6468 78.4C50.5468 81.2 44.8468 84.7 39.5468 88.8L37.4468 90.5L35.5468 92.2C34.2468 93.3 33.0468 94.6 31.7468 95.7C29.2468 98.2 26.9468 100.8 24.7468 103.5C20.3468 109 16.5468 114.9 13.4468 121.2C10.3468 127.3 7.84682 133.7 6.04682 140.3C4.34682 146.5 3.04684 152.8 2.44684 159.2C1.84684 164.9 1.64684 170.7 1.94684 176.5C2.14684 181.4 2.64684 186.3 3.44684 191.1C4.14684 195.4 5.04687 199.1 5.84687 202.2C6.64687 205.3 7.34684 207.6 7.94684 209.2L8.74677 211.7L7.84687 209.3C7.24687 207.7 6.44684 205.4 5.44684 202.4C4.44684 199.4 3.44679 195.7 2.64679 191.4C1.64679 186.6 0.846842 181.6 0.446842 176.7C-0.0531577 170.8 -0.153231 165 0.246769 159.1C0.646769 152.5 1.54682 146 3.04682 139.6C4.64682 132.7 6.94687 126 9.84687 119.5C12.8469 112.8 16.5468 106.4 20.9468 100.5C23.1468 97.5 25.5468 94.6 28.0468 91.9C29.3468 90.6 30.5468 89.2 31.9468 87.9L33.9468 86L35.9468 84.2C41.3754 79.47 47.3513 75.4077 53.7468 72.1001C59.7468 68.9001 65.9468 66.4 72.4468 64.5C78.2468 62.8 84.1468 61.6 90.1468 60.8C99.1468 59.7 108.247 59.5 117.247 60.3C120.547 60.6 123.047 61 124.847 61.2L126.847 61.5H127.547C130.247 61.8 132.347 64.2 132.047 67C131.747 69.7 129.347 71.8 126.547 71.5C126.247 71.5 125.947 71.4 125.747 71.3H125.547L125.347 71.6001V71.6001ZM270.847 26.9L274.347 26.5L278.547 26L284.447 25.5L287.947 25.2H304.947L309.947 25.4C313.347 25.5 316.947 25.9 320.647 26.2L326.347 26.9L332.247 27.8L338.247 28.8L344.447 30.1C353.147 32.1 361.747 34.6 370.147 37.7C388.347 44.5 405.447 53.8 421.047 65.3L426.947 69.8L432.647 74.5L438.147 79.4L443.347 84.5C450.047 91.2 456.247 98.3 461.947 105.9C467.247 113 472.147 120.4 476.447 128.1C478.547 131.7 480.347 135.4 482.147 138.9L484.547 144.2L485.747 146.8L486.847 149.4C489.347 155.6 491.647 161.8 493.547 168.2C495.247 173.9 496.547 178.9 497.447 183.1C498.347 187.3 498.947 190.6 499.347 192.8L499.847 196.3L499.147 192.9C498.647 190.7 498.047 187.4 496.947 183.3C495.847 179.2 494.547 174.2 492.647 168.6C490.747 163 488.347 156.7 485.347 150.1L484.147 147.6L482.947 145.1L480.347 139.9C478.447 136.5 476.547 132.9 474.347 129.4C469.847 121.9 464.847 114.8 459.347 108C453.447 100.8 447.147 94.0001 440.347 87.6001L435.047 82.8L429.547 78.2L423.847 73.8L417.947 69.6001C402.447 58.9001 385.547 50.4 367.747 44.4C359.547 41.7 351.247 39.5 342.747 37.9L336.747 36.8L330.947 36L325.347 35.4L319.847 34.9C316.247 34.7 312.847 34.4 309.647 34.5H296.247L292.347 34.8L288.747 35L285.547 35.4L280.047 36L275.847 36.6L272.347 37.1C269.647 37.5 267.047 35.6 266.647 32.9C266.247 30.2 268.147 27.6 270.847 27.2H271.047L270.847 26.9V26.9ZM473.047 35.9L466.647 33.3L459.247 30.3L449.547 26.8L443.947 24.9L437.947 23.1L431.547 21.2L424.847 19.5L417.847 17.7L410.647 16.2L407.047 15.4L403.347 14.7L395.947 13.4L392.247 12.8L388.547 12.3L381.147 11.3L373.847 10.5L370.247 10.1L366.747 9.8L359.847 9.3L353.247 8.99995L346.947 8.8H341.147L330.947 8.99995L323.147 9.39998L318.147 9.8L316.347 9.99995H316.247C313.447 10.2 311.047 8.19995 310.747 5.49995C310.547 2.69995 312.547 0.299951 315.347 -4.88281e-05H330.947L341.447 0.499951L347.447 0.999951L353.847 1.60005L360.547 2.3L367.547 3.3L371.147 3.8L374.747 4.39998L382.147 5.60005L389.547 7.10005L393.247 7.89998L396.947 8.8L404.347 10.6L408.047 11.6L411.647 12.6L418.847 14.6L425.747 16.8L432.447 19L438.747 21.3L444.747 23.5L450.247 25.8L459.747 29.9L466.947 33.4L473.047 35.9V35.9Z" transform="translate(203.952 241.4)" fill="#31323D"/>
<path d="M147.673 0.0750244H150.373C152.173 -0.0249756 154.773 -0.0249756 157.973 0.0750244C166.973 0.375024 175.973 1.57498 184.773 3.77498C190.573 5.27498 196.373 7.17502 201.873 9.57502C208.073 12.275 213.973 15.475 219.573 19.375C225.473 23.475 230.973 28.275 235.773 33.575L237.573 35.575L239.373 37.775C240.573 39.175 241.673 40.675 242.773 42.175C244.973 45.175 246.973 48.275 248.773 51.475C252.373 57.875 255.273 64.675 257.473 71.675C259.573 78.375 260.973 85.375 261.773 92.375C262.473 98.875 262.673 105.475 262.273 112.075C261.973 117.875 261.173 123.775 259.973 129.475C258.973 134.275 257.673 139.075 256.073 143.775C254.673 147.975 253.173 151.475 251.973 154.375C250.773 157.275 249.573 159.475 248.773 160.975L247.573 163.275L248.673 160.875C249.373 159.375 250.373 157.075 251.573 154.175C252.773 151.275 254.073 147.675 255.273 143.475C256.673 138.775 257.773 133.975 258.573 129.175C259.473 123.475 260.073 117.775 260.173 111.975C260.273 105.575 259.873 99.075 258.873 92.775C257.873 86.075 256.173 79.3751 253.873 72.9751C251.473 66.3751 248.373 60.075 244.673 54.075C242.873 51.075 240.873 48.275 238.673 45.475C237.573 44.175 236.473 42.775 235.273 41.475L233.573 39.575L231.673 37.675C222.473 28.475 211.373 21.375 199.173 16.775C193.973 14.775 188.573 13.175 183.073 12.075C174.873 10.375 166.473 9.575 158.073 9.675C155.073 9.675 152.673 9.87505 151.073 9.97505L149.273 10.175H148.573C145.873 10.675 143.273 8.97498 142.673 6.27498C142.073 3.57498 143.873 0.974951 146.573 0.374951C146.873 0.274951 147.273 0.274976 147.573 0.274976H147.773L147.673 0.0750244V0.0750244ZM158.073 121.875L157.473 123.875C157.273 124.575 157.073 125.275 156.673 126.275L155.273 129.675L153.373 133.675C152.573 135.075 151.773 136.675 150.773 138.275C148.473 141.875 145.873 145.275 142.973 148.375C139.473 152.075 135.673 155.475 131.473 158.375C126.773 161.675 121.773 164.375 116.573 166.575C113.773 167.775 110.973 168.775 108.073 169.575C105.073 170.475 102.073 171.175 99.0727 171.675C92.8727 172.775 86.6728 173.275 80.3728 173.175C74.0728 172.975 67.8728 172.275 61.7728 170.875C58.7728 170.175 55.8727 169.375 52.9727 168.375C50.1727 167.475 47.3728 166.375 44.6728 165.175L43.6728 164.775L43.1728 164.575L42.7728 164.375H42.5727L40.7728 163.475L36.9727 161.475C34.4727 160.075 32.1728 158.675 29.8728 157.175C25.7728 154.375 21.7728 151.275 18.1728 147.875C15.1728 144.975 12.2728 141.875 9.67281 138.575C7.67281 136.075 5.87281 133.375 4.17281 130.675C3.47281 129.575 2.87276 128.475 2.37276 127.575L1.17281 125.275L0.272787 123.275C-0.327213 122.075 0.0727627 120.575 1.37276 119.875C2.37276 119.375 3.67276 119.575 4.37276 120.475H4.47274L5.87276 121.975C6.67276 122.975 8.07279 124.375 9.77279 126.175C11.4728 127.975 13.6728 129.975 16.1728 132.275C18.9728 134.775 21.9727 137.075 25.0727 139.275C28.6727 141.775 32.4728 144.075 36.3728 146.175C38.4728 147.275 40.6728 148.375 42.8728 149.275L46.2728 150.675L48.1728 151.475L49.8728 152.075L53.4727 153.275L57.1728 154.375C59.6728 155.075 62.2728 155.675 64.8728 156.175C70.0728 157.175 75.4728 157.775 80.7728 157.875C86.0728 157.975 91.3728 157.675 96.6728 156.875L100.573 156.175L104.373 155.375C106.873 154.775 109.273 154.075 111.673 153.275C116.273 151.775 120.673 149.775 124.873 147.475C128.673 145.375 132.273 142.875 135.673 140.175C138.573 137.875 141.273 135.275 143.773 132.575C144.973 131.375 145.873 130.075 146.873 129.075L149.373 125.875L151.173 123.275C151.773 122.575 152.173 121.775 152.473 121.175L153.573 119.375C154.273 118.175 155.873 117.675 157.073 118.375C158.273 119.075 158.773 120.675 158.073 121.875V121.875Z" transform="translate(339.627 295.025)" fill="#31323D"/>
</svg>
